<?xml version="1.0" standalone="no"?><!DOCTYPE svg PUBLIC "-//W3C//DTD SVG 1.1//EN" "http://www.w3.org/Graphics/SVG/1.1/DTD/svg11.dtd"><svg t="1776931016339" class="icon" viewBox="0 0 1024 1024" version="1.1" xmlns="http://www.w3.org/2000/svg" p-id="8622" width="320" height="320" xmlns:xlink="http://www.w3.org/1999/xlink"><path d="M148 700h718.4c9.6 0 17.6 8 17.6 17.6v151.2H301.6c-88.8 0-161.6-72.8-161.6-161.6 0.8-4 4-7.2 8-7.2z" fill="#ECE46F" p-id="8623"></path><path d="M552.8 182.4v517.6H286.4c1.6-195.2 55.2-395.2 266.4-517.6z" fill="#F7D309" p-id="8624"></path><path d="M578.4 316.8l-1.6 383.2h245.6z" fill="#DBBC26" p-id="8625"></path><path d="M883.2 792.8l-717.6 0.8c28.8 44.8 79.2 74.4 136 74.4h581.6v-75.2z" fill="#D2CB60" p-id="8626"></path><path d="M552.8 700h25.6V168c0-7.2-5.6-12.8-12.8-12.8-7.2 0-12.8 5.6-12.8 12.8v532z" fill="#005E5D" p-id="8627"></path></svg>